<?xml version="1.0" encoding="UTF-8"?>
<svg id="Layer_2" data-name="Layer 2" xmlns="http://www.w3.org/2000/svg" height="33.09" viewBox="0 0 237.03 33.09">
  <defs>
    <style>
      .cls-1 {
        fill: none;
        //stroke: #d12539;
        stroke-miterlimit: 10;
        stroke-width: 4px;
      }
    </style>
  </defs>
  <g id="Unidirectional">
    <path class="cls-1" d="M80.89,26.43h18.53c1.66,0,2.49-1.81,2.89-3.37.25-.97.37-1.97.37-2.97v-2.18s0-3.69,0-3.69c0,0,.48-5.67-5.92-5.67h-15.87s-4.11,0-4.11,0h-21.19c-6.4,0-5.92,5.67-5.92,5.67v5.87c0,1,.12,2,.37,2.97.41,1.56,1.23,3.37,2.89,3.37h27.96Z"/>
    <g id="Layer_23" data-name="Layer 23">
      <path class="cls-1" d="M118.53,2.46h114.77s.58,0,1.19,0,.54.56.54.56v.52s0,25.44,0,25.44c0,0,.06,2.11-1.45,2.11-1.51,0-9.81,0-9.81,0h-105.24s-.03,0-.03,0H3.45c-1.51,0-1.45-2.11-1.45-2.11V3.02s-.06-.56.54-.56,1.19-.46,1.19-.46h114.77l.03.46Z"/>
      <path class="cls-1" d="M156.14,26.43h-18.53c-1.66,0-2.49-1.81-2.89-3.37-.25-.97-.37-1.97-.37-2.97v-5.87s-.48-5.67,5.92-5.67h15.87s4.11,0,4.11,0h21.19c6.4,0,5.92,5.67,5.92,5.67v3.69s0,2.18,0,2.18c0,1-.12,2-.37,2.97-.41,1.56-1.23,3.37-2.89,3.37h-23.85s-4.11,0-4.11,0Z"/>
    </g>
  </g>
</svg>