<?xml version="1.0" encoding="UTF-8"?>
<svg id="Layer_2" data-name="Layer 2" xmlns="http://www.w3.org/2000/svg" viewBox="0 0 238.38 40">
  <defs>
    <style>
      .cls-1 {
        fill: none;
        stroke: #d12539;
        stroke-miterlimit: 10;
        stroke-width: 4px;
      }
    </style>
  </defs>
  <g id="Custom">
    <path class="cls-1" d="M74.93,8.63c1.22-.3,1.33-1.44,1.33-1.44,0,0,.29-1.58.5-3.6.22-2.02,2.46-1.54,2.46-1.54h79.95s2.24-.48,2.46,1.54c.22,2.02.5,3.6.5,3.6,0,0,.11,1.15,1.33,1.44M74.93,8.63c-.18.04-.39.07-.62.07h-15.55s-1.22-.29-1.51-1.44-.72-4.03-.72-4.03c0,0,0-1.23-1.48-1.23H3.21s-.38-.07-.45.65-.72,5.47-.72,5.47c0,0-.14.43.14.58h1.37s.86,0,.93.86.36,5.76.36,5.76l1.08,21.09s.29,1.58,1.3,1.58h223.94c1.01,0,1.3-1.58,1.3-1.58l1.08-21.09s.29-4.9.36-5.76.93-.86.93-.86h1.37c.29-.14.14-.58.14-.58,0,0-.65-4.75-.72-5.47s-.45-.65-.45-.65h-51.85c-1.48,0-1.48,1.23-1.48,1.23,0,0-.43,2.88-.72,4.03-.29,1.15-1.51,1.44-1.51,1.44h-15.55c-.23,0-.44-.03-.62-.07"/>
  </g>
</svg>