<?xml version="1.0" encoding="UTF-8"?>
<svg id="Layer_2" data-name="Layer 2" xmlns="http://www.w3.org/2000/svg" viewBox="0 0 198.84 166">
  <defs>
    <style>
      .cls-1 {
        fill: none;
        stroke: #d12539;
        stroke-miterlimit: 10;
        stroke-width: 4px;
      }
    </style>
  </defs>
  <g id="Propak">
    <path class="cls-1" d="M2.65,76.79l1.05,11.11s.32.73,1.3.73c0,0,.32.32.32.97s.57.97.57.97h7.55s.24-1.38.56-1.38.41,1.05.41,1.05c0,0,.08.57.65.57h7.87s.48-.08.64-.73.97-1.22.97-1.22h3.57s.73.32.81.81.2,1.14.71,1.14h8.4s.22-.08.3-.41.41-.41.49-.08.22.49.4.49h3.51s.71,0,.8-.73.49-5.6.49-5.6c0,0,.07-.73.97-.69s11.62,0,11.62,0c0,0,.8-.12.8.77l.31,5.26c.01.22.07.43.17.62s.24.37.41.37h3.48s.74.08.74-.49c0,0,.08-.57.24-.41s.24.57.24.57c0,0,.07.33.52.33s1.38,0,1.38,0h6.37s.98.08.98-.98c0,0,0-.89.73-.89h4.3s.49,0,.49.73v.47s.04.67.67.67h6.23s1.64,0,1.64,0c0,0,.79.08.79-.65s.32-.49.32-.08.31.75.52.74.88,0,.88,0h6.51s.77,0,.77-.74v-.53s-.08-.69.57-.69h5.27s.65,0,.65.57v.61s0,.77.49.77h7.71s.32-.08.32-.32c0,0,.08-.49.32-.49s.32.57.32.57c0,0,.07.26.32.25h1.14s7.06,0,7.06,0c0,0,.57.07.57-.49v-.48s.24-.74.73-.74h4.22s.57,0,.57.49v.45s.04.77.51.77h8.16s.58-.01.58-.5c0,0,.16-.41.32-.41s.24.41.24.41c0,0,.07.5.36.5h3.6s.66.07.74-.66l.41-3.73.16-1.95s.09-.72.65-.68h12.08s.57-.05.57.52l.32,5.6s-.05.91.83.91h3.3s.66-.01.66-.5.24-.49.24-.49c0,0,.24.16.24.49,0,0,.05.5.55.5h8.13s.49-.01.49-.58v-.52s.16-.78.89-.78h3.81s.81,0,.81.57v.91s.05.4.67.4h8.01s.57-.01.57-.42.24-.49.24-.49c0,0,.32,0,.32.49,0,0,0,.41.41.41h7.46s.81,0,.81-.65v-.86s0-.44.41-.44h.32s.81-.16.81-.89,1-11.19,1-11.19c0,0,.78-.16.78-.65v-.56s0-.42-.49-.42-.42,0-.42,0c0,0-.47,0-.47.65H2.65v-.3s0-.27-.32-.27-.32.32-.32.32v.99s.08.31.65.23Z"/>
    <path class="cls-1" d="M2.65,149.95l1.05,11.11s.32.73,1.3.73c0,0,.32.32.32.97s.57.97.57.97h7.55s.24-1.38.56-1.38.41,1.05.41,1.05c0,0,.08.57.65.57h7.87s.48-.08.64-.73.97-1.22.97-1.22h3.57s.73.32.81.81.2,1.14.71,1.14h8.4s.22-.08.3-.41.41-.41.49-.08.22.49.4.49h3.51s.71,0,.8-.73.49-5.6.49-5.6c0,0,.07-.73.97-.69s11.62,0,11.62,0c0,0,.8-.12.8.77l.31,5.26c.01.22.07.43.17.62s.24.37.41.37h3.48s.74.08.74-.49c0,0,.08-.57.24-.41s.24.57.24.57c0,0,.07.33.52.33s1.38,0,1.38,0h6.37s.98.08.98-.98c0,0,0-.89.73-.89h4.3s.49,0,.49.73v.47s.04.67.67.67h6.23s1.64,0,1.64,0c0,0,.79.08.79-.65s.32-.49.32-.08.31.75.52.74.88,0,.88,0h6.51s.77,0,.77-.74v-.53s-.08-.69.57-.69h5.27s.65,0,.65.57v.61s0,.77.49.77h7.71s.32-.08.32-.32c0,0,.08-.49.32-.49s.32.57.32.57c0,0,.07.26.32.25h1.14s7.06,0,7.06,0c0,0,.57.07.57-.49v-.48s.24-.74.73-.74h4.22s.57,0,.57.49v.45s.04.77.51.77h8.16s.58-.01.58-.5c0,0,.16-.41.32-.41s.24.41.24.41c0,0,.07.5.36.5h3.6s.66.07.74-.66l.41-3.73.16-1.95s.09-.72.65-.68h12.08s.57-.05.57.52l.32,5.6s-.05.91.83.91h3.3s.66-.01.66-.5.24-.49.24-.49c0,0,.24.16.24.49,0,0,.05.5.55.5h8.13s.49-.01.49-.58v-.52s.16-.78.89-.78h3.81s.81,0,.81.57v.91s.05.4.67.4h8.01s.57-.01.57-.42.24-.49.24-.49c0,0,.32,0,.32.49,0,0,0,.41.41.41h7.46s.81,0,.81-.65v-.86s0-.44.41-.44h.32s.81-.16.81-.89,1-11.19,1-11.19c0,0,.78-.16.78-.65v-.56s0-.42-.49-.42-.42,0-.42,0c0,0-.47,0-.47.65H2.65v-.3s0-.27-.32-.27-.32.32-.32.32v.99s.08.31.65.23Z"/>
    <path class="cls-1" d="M2.65,3.62l1.05,11.11s.32.73,1.3.73c0,0,.32.32.32.97s.57.97.57.97h7.55s.24-1.38.56-1.38.41,1.05.41,1.05c0,0,.08.57.65.57h7.87s.48-.08.64-.73.97-1.22.97-1.22h3.57s.73.32.81.81.2,1.14.71,1.14h8.4s.22-.08.3-.41.41-.41.49-.08.22.49.4.49h3.51s.71,0,.8-.73.49-5.6.49-5.6c0,0,.07-.73.97-.69s11.62,0,11.62,0c0,0,.8-.12.8.77l.31,5.26c.01.22.07.43.17.62s.24.37.41.37h3.48s.74.08.74-.49c0,0,.08-.57.24-.41s.24.57.24.57c0,0,.07.33.52.33s1.38,0,1.38,0h6.37s.98.08.98-.98c0,0,0-.89.73-.89h4.3s.49,0,.49.73v.47s.04.67.67.67h6.23s1.64,0,1.64,0c0,0,.79.08.79-.65s.32-.49.32-.08.31.75.52.74.88,0,.88,0h6.51s.77,0,.77-.74v-.53s-.08-.69.57-.69h5.27s.65,0,.65.57v.61s0,.77.49.77h7.71s.32-.08.32-.32c0,0,.08-.49.32-.49s.32.57.32.57c0,0,.07.26.32.25h1.14s7.06,0,7.06,0c0,0,.57.07.57-.49v-.48s.24-.74.73-.74h4.22s.57,0,.57.49v.45s.04.77.51.77h8.16s.58-.01.58-.5c0,0,.16-.41.32-.41s.24.41.24.41c0,0,.07.5.36.5h3.6s.66.07.74-.66l.41-3.73.16-1.95s.09-.72.65-.68h12.08s.57-.05.57.52l.32,5.6s-.05.91.83.91h3.3s.66-.01.66-.5.24-.49.24-.49c0,0,.24.16.24.49,0,0,.05.5.55.5h8.13s.49-.01.49-.58v-.52s.16-.78.89-.78h3.81s.81,0,.81.57v.91s.05.4.67.4h8.01s.57-.01.57-.42.24-.49.24-.49c0,0,.32,0,.32.49,0,0,0,.41.41.41h7.46s.81,0,.81-.65v-.86s0-.44.41-.44h.32s.81-.16.81-.89,1-11.19,1-11.19c0,0,.78-.16.78-.65v-.56s0-.42-.49-.42-.42,0-.42,0c0,0-.47,0-.47.65H2.65v-.3s0-.27-.32-.27-.32.32-.32.32v.99s.08.31.65.23Z"/>
    <g id="Layer_27" data-name="Layer 27">
      <path class="cls-1" d="M33.9,17.64c.82.88,1.52,1.99,1.52,3.22v11.6s14.44,3.24,14.68,10.05v29.29c0,.4-.06.81-.19,1.19-.1.28-.24.62-.46.95-.57.89-1.3,1.87-1.3,1.87"/>
      <path class="cls-1" d="M14.17,16.07c-.32.41-.41,1.74-.41,1.74v15.86l-4.72,1.92c-1.41.58-2.69,1.44-3.72,2.55-2.89,3.11-2.68,6.64-2.68,6.64v26.96s.08,1.47.73,2.45,1.22,1.62,1.22,1.62"/>
      <path class="cls-1" d="M24.47,28.36h-1.66c-.7,0-1.39-.18-2-.53-.35-.2-.74-.46-1.09-.77-.65-.58-1.01-1.43-1.01-2.3v-.09c0-.6.1-1.21.31-1.77.35-.96,1.11-2.08,2.7-2.08v.41h-.57v.49h10.54v-.52h-.73v-.37s.81.17,1.6.7c.88.59,1.4,1.6,1.4,2.66v.31c0,.73-.16,1.45-.49,2.09-.45.87-1.28,1.79-2.82,1.79h-6.18Z"/>
      <path class="cls-1" d="M24.07,27.31v.65s.49,0,.52.4"/>
      <path class="cls-1" d="M28.09,28.36s-.05-.32.27-.32v-.73"/>
      <path class="cls-1" d="M82.4,17.64c.82.88,1.52,1.99,1.52,3.22v11.6s14.44,3.24,14.68,10.05v29.29c0,.4-.06.81-.19,1.19-.1.28-.24.62-.46.95-.57.89-1.3,1.87-1.3,1.87"/>
      <path class="cls-1" d="M62.29,17.56c-.02.15-.02.25-.02.25v15.86l-4.72,1.92c-1.41.58-2.69,1.44-3.72,2.55-2.89,3.11-2.68,6.64-2.68,6.64v26.96s.08,1.47.73,2.45c.65.97,1.22,1.62,1.22,1.62"/>
      <path class="cls-1" d="M72.98,28.36h-1.66c-.7,0-1.39-.18-2-.53-.35-.2-.74-.46-1.09-.77-.65-.58-1.01-1.43-1.01-2.3v-.09c0-.6.1-1.21.31-1.77.35-.96,1.11-2.08,2.7-2.08v.41h-.57v.49h10.54v-.52h-.73v-.37s.81.17,1.6.7c.88.59,1.4,1.6,1.4,2.66v.31c0,.73-.16,1.45-.49,2.09-.45.87-1.28,1.79-2.82,1.79h-6.18Z"/>
      <path class="cls-1" d="M72.58,27.31v.65s.49,0,.52.4"/>
      <path class="cls-1" d="M76.6,28.36s-.05-.32.27-.32v-.73"/>
      <path class="cls-1" d="M130.42,17.64c.82.88,1.52,1.99,1.52,3.22v11.6s14.44,3.24,14.68,10.05v29.29c0,.4-.06.81-.19,1.19-.1.28-.24.62-.46.95-.57.89-1.3,1.87-1.3,1.87"/>
      <path class="cls-1" d="M110.31,17.57c-.02.15-.02.25-.02.25v15.86l-4.72,1.92c-1.41.58-2.69,1.44-3.72,2.55-2.89,3.11-2.68,6.64-2.68,6.64v26.96s.08,1.47.73,2.45,1.22,1.62,1.22,1.62"/>
      <path class="cls-1" d="M121,28.36h-1.66c-.7,0-1.39-.18-2-.53-.35-.2-.74-.46-1.09-.77-.65-.58-1.01-1.43-1.01-2.3v-.09c0-.6.1-1.21.31-1.77.35-.96,1.11-2.08,2.7-2.08v.41h-.57v.49h10.54v-.52h-.73v-.37s.81.17,1.6.7c.88.59,1.4,1.6,1.4,2.66v.31c0,.73-.16,1.45-.49,2.09-.45.87-1.28,1.79-2.82,1.79h-6.18Z"/>
      <path class="cls-1" d="M120.6,27.31v.65s.49,0,.52.4"/>
      <path class="cls-1" d="M124.62,28.36s-.05-.32.27-.32v-.73"/>
      <path class="cls-1" d="M178.69,17.64c.82.88,1.52,1.99,1.52,3.22v11.6s14.44,3.24,14.68,10.05v29.29c0,.4-.06.81-.19,1.19-.1.28-.24.62-.46.95-.57.89-1.3,1.87-1.3,1.87"/>
      <path class="cls-1" d="M158.57,17.6c-.01.14-.02.22-.02.22v15.86l-4.72,1.92c-1.41.58-2.69,1.44-3.72,2.55-2.89,3.11-2.68,6.64-2.68,6.64v26.96s.08,1.47.73,2.45,1.22,1.62,1.22,1.62"/>
      <path class="cls-1" d="M169.26,28.36h-1.66c-.7,0-1.39-.18-2-.53-.35-.2-.74-.46-1.09-.77-.65-.58-1.01-1.43-1.01-2.3v-.09c0-.6.1-1.21.31-1.77.35-.96,1.11-2.08,2.7-2.08v.41h-.57v.49h10.54v-.52h-.73v-.37s.81.17,1.6.7c.88.59,1.4,1.6,1.4,2.66v.31c0,.73-.16,1.45-.49,2.09-.45.87-1.28,1.79-2.82,1.79h-6.18Z"/>
      <path class="cls-1" d="M168.86,27.31v.65s.49,0,.52.4"/>
      <path class="cls-1" d="M172.88,28.36s-.05-.32.27-.32v-.73"/>
      <path class="cls-1" d="M33.9,90.8c.82.88,1.52,1.99,1.52,3.22v11.6s14.44,3.24,14.68,10.05v29.29c0,.4-.06.81-.19,1.19-.1.28-.24.62-.46.95-.57.89-1.3,1.87-1.3,1.87"/>
      <path class="cls-1" d="M14.17,89.24c-.32.41-.41,1.74-.41,1.74v15.86l-4.72,1.92c-1.41.58-2.69,1.44-3.72,2.55-2.89,3.11-2.68,6.64-2.68,6.64v26.96s.08,1.47.73,2.45,1.22,1.62,1.22,1.62"/>
      <path class="cls-1" d="M24.47,101.53h-1.66c-.7,0-1.39-.18-2-.53-.35-.2-.74-.46-1.09-.77-.65-.58-1.01-1.43-1.01-2.3v-.09c0-.6.1-1.21.31-1.77.35-.96,1.11-2.08,2.7-2.08v.41h-.57v.49h10.54v-.52h-.73v-.37s.81.17,1.6.7c.88.59,1.4,1.6,1.4,2.66v.31c0,.73-.16,1.45-.49,2.09-.45.87-1.28,1.79-2.82,1.79h-6.18Z"/>
      <path class="cls-1" d="M24.07,100.47v.65s.49,0,.52.4"/>
      <path class="cls-1" d="M28.09,101.53s-.05-.32.27-.32v-.73"/>
      <path class="cls-1" d="M82.4,90.8c.82.88,1.52,1.99,1.52,3.22v11.6s14.44,3.24,14.68,10.05v29.29c0,.4-.06.81-.19,1.19-.1.28-.24.62-.46.95-.57.89-1.3,1.87-1.3,1.87"/>
      <path class="cls-1" d="M62.29,90.73c-.02.15-.02.25-.02.25v15.86l-4.72,1.92c-1.41.58-2.69,1.44-3.72,2.55-2.89,3.11-2.68,6.64-2.68,6.64v26.96s.08,1.47.73,2.45c.65.97,1.22,1.62,1.22,1.62"/>
      <path class="cls-1" d="M72.98,101.53h-1.66c-.7,0-1.39-.18-2-.53-.35-.2-.74-.46-1.09-.77-.65-.58-1.01-1.43-1.01-2.3v-.09c0-.6.1-1.21.31-1.77.35-.96,1.11-2.08,2.7-2.08v.41h-.57v.49h10.54v-.52h-.73v-.37s.81.17,1.6.7c.88.59,1.4,1.6,1.4,2.66v.31c0,.73-.16,1.45-.49,2.09-.45.87-1.28,1.79-2.82,1.79h-6.18Z"/>
      <path class="cls-1" d="M72.58,100.47v.65s.49,0,.52.4"/>
      <path class="cls-1" d="M76.6,101.53s-.05-.32.27-.32v-.73"/>
      <path class="cls-1" d="M130.42,90.8c.82.88,1.52,1.99,1.52,3.22v11.6s14.44,3.24,14.68,10.05v29.29c0,.4-.06.81-.19,1.19-.1.28-.24.62-.46.95-.57.89-1.3,1.87-1.3,1.87"/>
      <path class="cls-1" d="M110.31,90.73c-.02.15-.02.25-.02.25v15.86l-4.72,1.92c-1.41.58-2.69,1.44-3.72,2.55-2.89,3.11-2.68,6.64-2.68,6.64v26.96s.08,1.47.73,2.45,1.22,1.62,1.22,1.62"/>
      <path class="cls-1" d="M121,101.53h-1.66c-.7,0-1.39-.18-2-.53-.35-.2-.74-.46-1.09-.77-.65-.58-1.01-1.43-1.01-2.3v-.09c0-.6.1-1.21.31-1.77.35-.96,1.11-2.08,2.7-2.08v.41h-.57v.49h10.54v-.52h-.73v-.37s.81.17,1.6.7c.88.59,1.4,1.6,1.4,2.66v.31c0,.73-.16,1.45-.49,2.09-.45.87-1.28,1.79-2.82,1.79h-6.18Z"/>
      <path class="cls-1" d="M120.6,100.47v.65s.49,0,.52.4"/>
      <path class="cls-1" d="M124.62,101.53s-.05-.32.27-.32v-.73"/>
      <path class="cls-1" d="M178.69,90.8c.82.88,1.52,1.99,1.52,3.22v11.6s14.44,3.24,14.68,10.05v29.29c0,.4-.06.81-.19,1.19-.1.28-.24.62-.46.95-.57.89-1.3,1.87-1.3,1.87"/>
      <path class="cls-1" d="M158.57,90.76c-.01.14-.02.22-.02.22v15.86l-4.72,1.92c-1.41.58-2.69,1.44-3.72,2.55-2.89,3.11-2.68,6.64-2.68,6.64v26.96s.08,1.47.73,2.45,1.22,1.62,1.22,1.62"/>
      <path class="cls-1" d="M169.26,101.53h-1.66c-.7,0-1.39-.18-2-.53-.35-.2-.74-.46-1.09-.77-.65-.58-1.01-1.43-1.01-2.3v-.09c0-.6.1-1.21.31-1.77.35-.96,1.11-2.08,2.7-2.08v.41h-.57v.49h10.54v-.52h-.73v-.37s.81.17,1.6.7c.88.59,1.4,1.6,1.4,2.66v.31c0,.73-.16,1.45-.49,2.09-.45.87-1.28,1.79-2.82,1.79h-6.18Z"/>
      <path class="cls-1" d="M168.86,100.47v.65s.49,0,.52.4"/>
      <path class="cls-1" d="M172.88,101.53s-.05-.32.27-.32v-.73"/>
    </g>
  </g>
</svg>